<?xml version="1.0" encoding="UTF-8"?>
<svg id="Layer_1" xmlns="http://www.w3.org/2000/svg" xmlns:xlink="http://www.w3.org/1999/xlink" version="1.1" viewBox="0 0 759 591.2">
  <!-- Generator: Adobe Illustrator 29.3.1, SVG Export Plug-In . SVG Version: 2.1.0 Build 151)  -->
  <defs>
    <style>
      .st0 {
        stroke: #ffffff;
        stroke-miterlimit: 10;
        stroke-width: 16px;
        fill: #ffffff;
      }
    </style>
  </defs>
  <path class="st0" d="M665.4,34.7c-.4-12.2,2.3-22.2,15.4-25.3,16.8-.8,20.8,10.9,20.3,25.3,17.3,0,45.6-6.5,46.7,18.5.5,11,0,22.1,0,33.1v102.2c0,45-4.5,41.2-43.4,41.1h-228.5s0,43.5,0,43.5c0,29.5,1.4,53.4-21.4,76.1-27.2,27.2-53.6,24-88.7,24h-80.5c-2.7,14.8-6.7,29.2-10.2,43.8l-25.3,107.3c-13.1,54.2-21.6,59.1-78.2,59.1h-92.5c-22.5,0-41.2,1.6-57.4-17.5-13.9-19.1-8-40.1-3.1-61.2l38.8-171.6c18.4-82.2-49.4-104.2-46.8-125.3,1-8.1,4.8-16.4,7.5-24.1l13.5-38.8c3.2-9.1,6.8-18.2,9.1-27.6-21.4.3-34.6-15.9-19.4-30.2,6.5-6.1,24.5-4.1,33.4-4.1,14.8-44.3,27.9-48.2,75.7-48.2h535ZM545.3,68.3H157.3c-16.2,0-33.2-1-49.3.5-19.9,1.9-22.7,27.3-28.2,42.5-10,28-19.4,56.1-29.9,83.9h665.4c-.4-14,0-28.1,0-42.2v-84.8h-170.1ZM152.8,229.6h-55.9c-8.9,0-18.1-.6-26.9,0,38.7,55.3,23.2,98.4,10.3,156.3l-28.4,124.7c-10.9,46-7,38.9,34.9,38.9h67.7s28.4,0,28.4,0c32.1.1,27.7-6.1,33.9-32.8l31.7-136c11.1-47.7,27.2-103.8,34.9-151.1h-130.6ZM374.3,229.6h-37.5c-6.2,0-12.7-.5-18.8,0-2.6,14.4-7.1,28.6-9.2,43,1,.7,1,.6,2.1.6,18.9.2,34.2-2.4,48.3-16.1,5.3-5.2,16.5-20.2,16.8-27.3-1-.5-.5-.4-1.7-.2ZM411.2,229.6c-6.8,27.6-22.8,51.5-47.5,66.4-22.3,13.4-39.1,10.7-63.4,11.3-2.6,10.5-5.3,21-7.4,31.6h79.8c11.1,0,28.1,1.4,38.3-1.5,33.6-9.6,31.9-38,31.9-64.8v-42.9h-31.7Z"/>
  <path class="st0" d="M296.6,150.2h-140.6c-8.7,0-19.2,1.6-26.8-3.6-14.3-9.8-5.5-29.5,9.9-31.8,32.2-.7,64.6,0,96.9,0h38c7.1,0,14.5-.4,21.6.2,22.1,1.8,22.8,31.3,1.1,35.2Z"/>
</svg>